<svg xmlns="http://www.w3.org/2000/svg"><style>:root svg:not(:target){display:none}</style><svg viewBox="0 0 33 32" fill="none" id="bike"><path d="M25.8334 9.33329C25.8334 7.86663 24.6334 6.66663 23.1667 6.66663H19.1667V9.33329H23.1667V12.8666L18.5267 18.6666H13.8334V12H8.50008C5.55341 12 3.16675 14.3866 3.16675 17.3333V21.3333H5.83341C5.83341 23.5466 7.62008 25.3333 9.83341 25.3333C12.0467 25.3333 13.8334 23.5466 13.8334 21.3333H19.8067L25.8334 13.8V9.33329ZM5.83341 18.6666V17.3333C5.83341 15.8666 7.03341 14.6666 8.50008 14.6666H11.1667V18.6666H5.83341ZM9.83341 22.6666C9.10008 22.6666 8.50008 22.0666 8.50008 21.3333H11.1667C11.1667 22.0666 10.5667 22.6666 9.83341 22.6666Z" fill="#0F805D"></path><path d="M7.16675 8H13.8334V10.6667H7.16675V8ZM25.8334 17.3333C23.6201 17.3333 21.8334 19.12 21.8334 21.3333C21.8334 23.5467 23.6201 25.3333 25.8334 25.3333C28.0467 25.3333 29.8334 23.5467 29.8334 21.3333C29.8334 19.12 28.0467 17.3333 25.8334 17.3333ZM25.8334 22.6667C25.1001 22.6667 24.5001 22.0667 24.5001 21.3333C24.5001 20.6 25.1001 20 25.8334 20C26.5667 20 27.1667 20.6 27.1667 21.3333C27.1667 22.0667 26.5667 22.6667 25.8334 22.6667Z" fill="#0F805D"></path></svg><svg viewBox="0 0 32 32" fill="none" id="contacts-email"><path d="M23.875 9H8.125C7.82663 9 7.54048 9.12292 7.3295 9.34171C7.11853 9.5605 7 9.85725 7 10.1667V21.8333C7 22.1428 7.11853 22.4395 7.3295 22.6583C7.54048 22.8771 7.82663 23 8.125 23H23.875C24.1734 23 24.4595 22.8771 24.6705 22.6583C24.8815 22.4395 25 22.1428 25 21.8333V10.1667C25 9.85725 24.8815 9.5605 24.6705 9.34171C24.4595 9.12292 24.1734 9 23.875 9ZM23.0087 21.8333H9.05875L12.9963 17.61L12.1863 16.7992L8.125 21.1567V11.0533L15.1169 18.2692C15.3277 18.4865 15.6128 18.6084 15.91 18.6084C16.2072 18.6084 16.4923 18.4865 16.7031 18.2692L23.875 10.8725V21.0808L19.735 16.7875L18.9419 17.61L23.0087 21.8333ZM8.86187 10.1667H22.9637L15.91 17.4408L8.86187 10.1667Z" fill="black"></path></svg><svg viewBox="0 0 32 32" fill="none" id="contacts-leaf"><path d="M21.4869 9.97864C20.2469 7.87777 18.4866 6.13181 16.3756 4.90911L16 4.69189L15.6245 4.90911C13.4776 6.14812 11.6949 7.93071 10.4557 10.0775C9.21658 12.2243 8.56469 14.6597 8.56567 17.1384C8.56567 17.2999 8.56849 17.4639 8.57397 17.6259C8.6486 19.8223 9.48855 21.6704 11.003 22.9705C12.162 23.9654 13.6486 24.5728 15.2502 24.7177V27.3083H16.7502V15.3083H15.25V23.2081C12.7158 22.9145 10.1935 21.1243 10.073 17.5749C10.068 17.4298 10.0655 17.283 10.0655 17.1384C10.07 14.9981 10.6166 12.8938 11.6543 11.0218C12.6921 9.14992 14.1872 7.57141 16 6.43363C17.8129 7.57144 19.3079 9.14995 20.3457 11.0219C21.3834 12.8938 21.93 14.9981 21.9344 17.1384C21.9344 17.283 21.9319 17.4298 21.9269 17.575C21.8306 20.4143 20.1969 22.1278 18.2499 22.8501V24.4376C19.2602 24.1512 20.1972 23.6509 20.9971 22.9704C22.5115 21.6703 23.3515 19.8222 23.4261 17.6259C23.4316 17.4639 23.4344 17.2999 23.4344 17.1384C23.4358 14.6208 22.7633 12.1487 21.4869 9.97864Z" fill="black"></path></svg><svg viewBox="0 0 32 32" fill="none" id="contacts-phone"><path d="M12.5625 6.5045L11.7021 6.7637C10.936 6.99474 10.2518 7.43981 9.73011 8.04655C9.20841 8.65328 8.87089 9.39642 8.75728 10.1885C8.40088 12.6701 9.19768 15.5717 11.1189 18.8993C13.0353 22.2185 15.1449 24.3569 17.4669 25.2929C18.2129 25.5936 19.0297 25.6737 19.82 25.5237C20.6102 25.3738 21.3408 25 21.9249 24.4469L22.5753 23.8301C22.9976 23.4304 23.2605 22.8909 23.315 22.312C23.3695 21.7331 23.212 21.154 22.8717 20.6825L21.2445 18.4265C21.0245 18.1219 20.7147 17.8938 20.3585 17.7742C20.0024 17.6545 19.6177 17.6493 19.2585 17.7593L16.7973 18.5117L16.7337 18.5237C16.4625 18.5633 15.8361 17.9765 15.0561 16.6253C14.2401 15.2117 14.0721 14.3849 14.2965 14.1713L15.5481 13.0037C16.0058 12.5771 16.3184 12.0178 16.4422 11.4045C16.5659 10.7911 16.4945 10.1544 16.2381 9.5837L15.4437 7.8185C15.2048 7.28731 14.7809 6.86112 14.251 6.61936C13.7211 6.3776 13.1214 6.33678 12.5637 6.5045H12.5625ZM14.3505 8.3105L15.1425 10.0757C15.2967 10.418 15.3399 10.8 15.2658 11.168C15.1918 11.5361 15.0043 11.8717 14.7297 12.1277L13.4745 13.2965C12.6717 14.0573 12.9381 15.3557 14.0181 17.2253C15.0333 18.9845 15.9597 19.8533 16.9557 19.7021L17.1045 19.6709L19.6101 18.9065C19.7298 18.8697 19.8581 18.8713 19.9769 18.9112C20.0957 18.951 20.1991 19.027 20.2725 19.1285L21.8997 21.3845C22.0701 21.6202 22.149 21.9099 22.1219 22.1995C22.0947 22.4891 21.9633 22.7589 21.7521 22.9589L21.1005 23.5757C20.6833 23.9705 20.1615 24.2373 19.5972 24.3443C19.0328 24.4513 18.4496 24.394 17.9169 24.1793C15.8793 23.3585 13.9533 21.4061 12.1593 18.2993C10.3605 15.1853 9.63208 12.5369 9.94528 10.3589C10.0264 9.79302 10.2674 9.26208 10.6401 8.8286C11.0128 8.39512 11.5016 8.07714 12.0489 7.9121L12.9093 7.6529C13.1882 7.56908 13.4881 7.58958 13.7531 7.71057C14.018 7.83157 14.2299 8.0448 14.3493 8.3105H14.3505Z" fill="black"></path></svg><svg viewBox="0 0 20 24" id="htmlacademy"><path d="M10.1115 0H10.0372L0 0.985337V18.3695L10.0372 24L20 18.3695V0.985337L10.1115 0ZM18.5874 8.51613L10.0372 3.73021V3.65982H9.96283L9.88848 3.58944V3.65982L1.41264 8.51613V2.18182L9.96283 1.33724L18.5874 2.18182V8.51613ZM9.96283 4.78592L18.513 9.50147L15.1673 11.3314L9.88848 8.37537V9.3607L14.2751 11.824L13.6059 12.176L9.88848 10.0645V11.0499L12.7138 12.6686L12.119 13.0205L9.88848 11.7537V12.739L11.3011 13.5132L9.96283 14.2874L1.48699 9.57185L9.96283 4.78592ZM1.41264 10.6276L9.88848 15.4135V16.1173L4.01487 12.8094V13.7947L9.96283 17.173V17.9472L4.01487 14.6393V15.6246L9.96283 19.0029L15.9851 15.5543V11.8944L18.513 10.4868V17.5249L9.96283 22.3812L1.41264 17.5953V10.6276Z"></path></svg><svg viewBox="0 0 33 32" fill="none" id="leaf"><path d="M12.5029 21.9957C24.4569 21.9957 25.4199 11.8257 25.4969 6.99266C25.4976 6.8612 25.472 6.73092 25.4214 6.60955C25.3709 6.48818 25.2965 6.37818 25.2027 6.28606C25.1089 6.19394 24.9976 6.12157 24.8753 6.07324C24.7531 6.0249 24.6224 6.00159 24.4909 6.00466C7.50293 6.31666 7.50293 14.5527 7.50293 21.9957V25.9957" stroke="#0F805D" stroke-width="2" stroke-linecap="round" stroke-linejoin="round"></path><path d="M7.50293 21.9956C7.50293 21.9956 7.50293 15.9956 15.5029 14.9956" stroke="#0F805D" stroke-width="2" stroke-linecap="round" stroke-linejoin="round"></path></svg><svg viewBox="0 0 228 32" fill="none" id="line-leaf"><path d="M99.6809 16.1197C99.6789 16.074 99.6615 16.0314 99.632 15.9919C99.6725 15.9908 99.7126 15.9898 99.7521 15.9898C99.7284 16.0324 99.7052 16.076 99.6809 16.1197ZM90.0926 29.4649C90.7073 24.6494 94.0287 18.6069 99.5092 16.3503C99.5388 16.3389 99.5571 16.3223 99.5792 16.3067C98.2325 18.8334 97.524 21.5295 96.005 24.024C94.6819 26.1985 92.4449 27.9211 90.0926 29.4649ZM72.0498 27.7486C71.5759 28.5371 68.8717 31.9647 69.1098 29.9491C69.3052 28.2857 69.8603 26.6577 70.4823 25.0629C71.7665 21.7715 74.1694 19.0131 77.3591 16.688C76.5448 17.649 76.1903 18.9072 75.8137 19.9648C74.8731 22.611 73.5468 25.2562 72.0498 27.7486ZM64.9192 5.33332C62.9481 3.06945 66.5041 4.29128 68.1559 4.70062C70.8895 5.37697 73.4899 6.52188 75.8596 7.75407C79.4872 9.64184 82.9914 11.6802 85.2762 14.5581C77.3897 13.3187 69.5917 10.7016 64.9192 5.33332ZM88.692 6.00554C87.7972 5.4123 87.0034 4.74424 86.2186 4.06685C86.395 4.22062 83.7894 1.03935 83.9157 1.07364C89.0539 2.47206 93.6073 4.60918 97.5957 7.46524C100.528 9.56495 102.378 12.4304 105.176 14.607C101.193 13.2293 97.8643 11.2771 94.2953 9.31665C92.3743 8.26108 90.4824 7.19306 88.692 6.00554ZM46.0769 28.8166C44.5236 30.266 44.1318 29.921 44.138 28.1496C44.1449 26.2764 45.2495 24.4905 46.4467 22.9154C48.4476 20.2869 51.6207 18.2599 54.4648 16.1976C54.4933 16.1976 54.5228 16.1976 54.5518 16.1986C51.9414 20.5664 50.1369 25.0297 46.0769 28.8166ZM30.5625 19.8495C28.8501 22.2235 27.3495 24.7647 23.9 25.733C24.6284 21.3321 28.8168 17.9222 34.0235 16.3327C32.4976 17.1939 31.402 18.6838 30.5625 19.8495ZM2.31936 15.381C8.06838 13.8288 13.5542 13.9888 19.3271 15.0849C18.2435 15.0942 17.1617 15.1036 16.0793 15.1119C15.6801 15.1161 15.5252 15.3986 15.6058 15.6251C11.0397 16.1623 6.2645 17.3643 2.31936 15.381ZM19.9312 4.74529C27.4996 4.81489 33.0844 9.8912 38.0033 14.0522C34.7019 12.8449 31.0549 12.2423 27.9336 10.6216C24.8844 9.0403 22.5537 6.72863 19.9312 4.74529ZM39.3718 3.20143C48.424 4.5853 55.779 8.28082 60.3699 14.4303C52.2617 12.8761 43.0883 9.27199 39.3718 3.20143ZM111.634 15.2875C110.015 15.2438 108.395 15.2179 106.775 15.1815C106.84 15.0755 106.832 14.9436 106.697 14.8241C103.188 11.7187 100.445 8.26419 96.3485 5.57124C92.4554 3.01128 87.7429 1.33754 82.966 0.0170403C82.6369 -0.0743866 82.226 0.219631 82.3646 0.481445C84.2981 4.13438 87.7635 6.60397 91.8007 8.93225C95.3387 10.9727 99.4292 14.0002 103.863 15.1181C98.1161 15.0018 92.3658 14.9124 86.6152 14.8615C85.3348 12.0719 81.8547 10.1042 78.8703 8.41173C74.1909 5.75826 69.0866 3.80816 63.3285 3.05492C62.9719 3.0092 62.6596 3.21492 62.7459 3.50271C63.813 7.01954 68.0463 9.60028 71.7102 11.5535C73.8702 12.7047 76.9026 14.0864 79.9743 14.8189C73.8212 14.7867 67.6671 14.7794 61.5124 14.794C58.9642 7.52758 47.352 3.42998 38.6034 2.25701C38.2525 2.20922 37.788 2.43988 37.9522 2.75779C40.9198 8.53018 49.4589 13.247 57.5498 14.8096C51.687 14.8324 45.8246 14.8646 39.9623 14.9103C39.9333 14.8698 39.8938 14.8324 39.8332 14.8013C39.5978 14.6901 39.3517 14.5966 39.1116 14.4948C33.828 9.56601 27.5444 3.33232 18.4353 3.83621C17.9169 3.86426 17.5852 4.34426 17.996 4.65283C20.7612 6.72657 23.2364 9.15355 26.3435 10.9364C29.6839 12.8532 33.6274 14.0387 37.6247 14.9301C32.5171 14.9706 27.4117 15.0142 22.3061 15.0589C15.5404 12.288 7.32151 12.3483 0.377841 14.6974C-0.0582844 14.8449 -0.126231 15.3934 0.222977 15.6241C2.77552 17.3072 5.95423 17.4994 9.19928 17.4402C13.0975 17.3706 18.1636 17.2116 21.8584 16.1997C22.006 16.1592 22.0839 16.0584 22.085 15.9576C25.4955 15.9877 28.9064 16.0147 32.3174 16.0438C26.9075 17.5835 23.1278 21.7539 22.8703 26.2504C22.856 26.4915 23.1815 26.6598 23.4702 26.6016C26.3756 26.0167 28.2086 24.4998 29.7377 22.5809C30.6393 21.4474 31.3831 20.2432 32.2832 19.1077C33.3493 17.7622 34.6461 17.062 36.3042 16.2236C36.3863 16.183 36.4333 16.1321 36.4622 16.0792C41.998 16.1238 47.5333 16.1633 53.0711 16.1924C47.0508 19.731 41.4186 24.7294 43.1151 30.9267C43.1836 31.1792 43.6171 31.3911 43.9421 31.2883C46.9591 30.3397 48.7452 27.785 50.3038 25.7226C52.5982 22.6868 54.0688 19.4994 55.6369 16.2173C55.6394 16.2121 55.6374 16.2069 55.6394 16.2007C62.569 16.2319 69.4995 16.2454 76.4274 16.2215C70.6093 19.409 67.2325 26.2847 67.7202 31.5449C67.7413 31.7683 67.9731 32.0259 68.3071 31.9979C71.1782 31.7475 72.9837 28.2795 73.8981 26.5684C75.631 23.3248 76.568 19.0256 79.2443 16.2028C85.694 16.1716 92.1431 16.1124 98.5896 16.0054C92.1442 17.7903 88.4729 25.9398 88.642 30.6379C88.6594 31.1127 89.3499 31.2935 89.7919 31.0047C96.0355 26.9185 98.6149 21.9835 100.701 15.969C104.346 15.9036 107.991 15.8277 111.634 15.7311C112.006 15.7218 112.006 15.2968 111.634 15.2875Z" fill="#8E9892" fill-opacity="0.7"></path><path d="M128.247 15.9898C128.287 15.9898 128.328 15.9908 128.367 15.9919C128.339 16.0314 128.321 16.074 128.32 16.1197C128.295 16.076 128.271 16.0324 128.247 15.9898ZM131.995 24.024C130.476 21.5295 129.766 18.8334 128.421 16.3067C128.444 16.3223 128.461 16.3389 128.491 16.3503C133.972 18.6069 137.292 24.6494 137.908 29.4649C135.555 27.9211 133.318 26.1985 131.995 24.024ZM152.185 19.9648C151.81 18.9072 151.455 17.649 150.641 16.688C153.831 19.0131 156.234 21.7715 157.518 25.0629C158.139 26.6577 158.695 28.2857 158.892 29.9491C159.128 31.9647 156.424 28.5371 155.951 27.7486C154.454 25.2562 153.126 22.611 152.185 19.9648ZM142.723 14.5581C145.01 11.6802 148.513 9.64183 152.142 7.75407C154.511 6.52188 157.111 5.37697 159.844 4.70062C161.496 4.29127 165.051 3.06945 163.081 5.33332C158.409 10.7016 150.611 13.3187 142.723 14.5581ZM133.705 9.31665C130.136 11.2771 126.808 13.2293 122.824 14.607C125.622 12.4304 127.473 9.56495 130.404 7.46524C134.393 4.60917 138.946 2.47206 144.085 1.07364C144.211 1.03935 141.605 4.22061 141.781 4.06685C140.997 4.74424 140.204 5.4123 139.308 6.00554C137.517 7.19306 135.627 8.26108 133.705 9.31665ZM173.449 16.1986C173.477 16.1976 173.507 16.1976 173.535 16.1976C176.379 18.2599 179.552 20.2869 181.553 22.9154C182.752 24.4905 183.855 26.2764 183.863 28.1496C183.868 29.921 183.476 30.266 181.924 28.8166C177.864 25.0297 176.06 20.5664 173.449 16.1986ZM193.976 16.3327C199.183 17.9222 203.371 21.3321 204.1 25.733C200.652 24.7647 199.15 22.2235 197.437 19.8495C196.597 18.6838 195.504 17.1939 193.976 16.3327ZM212.395 15.6251C212.474 15.3986 212.319 15.1161 211.922 15.1119C210.839 15.1036 209.756 15.0942 208.673 15.0849C214.446 13.9888 219.932 13.8288 225.681 15.381C221.735 17.3643 216.961 16.1623 212.395 15.6251ZM200.067 10.6216C196.946 12.2423 193.299 12.8449 189.997 14.0522C194.916 9.8912 200.501 4.81489 208.069 4.74529C205.447 6.72863 203.115 9.04029 200.067 10.6216ZM167.631 14.4303C172.222 8.28082 179.576 4.5853 188.628 3.20142C184.911 9.27199 175.739 12.8761 167.631 14.4303ZM116.366 15.7311C120.01 15.8277 123.654 15.9036 127.299 15.969C129.385 21.9835 131.964 26.9185 138.209 31.0047C138.65 31.2935 139.341 31.1127 139.358 30.6379C139.528 25.9398 135.856 17.7903 129.411 16.0054C135.859 16.1124 142.307 16.1716 148.756 16.2028C151.433 19.0256 152.368 23.3248 154.101 26.5684C155.017 28.2795 156.822 31.7475 159.693 31.9979C160.027 32.0259 160.259 31.7683 160.279 31.5449C160.767 26.2847 157.391 19.409 151.573 16.2215C158.501 16.2454 165.432 16.2319 172.361 16.2007C172.362 16.2069 172.361 16.2121 172.362 16.2173C173.932 19.4994 175.402 22.6868 177.695 25.7226C179.255 27.785 181.041 30.3397 184.058 31.2883C184.383 31.3911 184.816 31.1792 184.885 30.9267C186.581 24.7294 180.949 19.731 174.93 16.1924C180.466 16.1633 186.003 16.1238 191.538 16.0792C191.566 16.1321 191.613 16.183 191.696 16.2236C193.354 17.062 194.651 17.7622 195.718 19.1077C196.617 20.2432 197.362 21.4474 198.264 22.5809C199.791 24.4998 201.624 26.0167 204.53 26.6016C204.818 26.6598 205.145 26.4915 205.13 26.2504C204.872 21.7539 201.091 17.5835 195.683 16.0438C199.094 16.0147 202.506 15.9877 205.916 15.9576C205.917 16.0584 205.995 16.1592 206.142 16.1997C209.836 17.2116 214.902 17.3706 218.801 17.4402C222.045 17.4994 225.225 17.3072 227.777 15.6241C228.125 15.3934 228.059 14.8449 227.622 14.6974C220.678 12.3483 212.461 12.288 205.695 15.0589C200.588 15.0142 195.483 14.9706 190.376 14.9301C194.372 14.0387 198.315 12.8532 201.656 10.9364C204.764 9.15354 207.239 6.72657 210.004 4.65283C210.414 4.34426 210.084 3.86426 209.565 3.83621C200.456 3.33232 194.171 9.56601 188.888 14.4948C188.647 14.5966 188.403 14.6901 188.167 14.8013C188.106 14.8324 188.066 14.8698 188.037 14.9103C182.176 14.8646 176.313 14.8324 170.45 14.8096C178.542 13.247 187.081 8.53018 190.048 2.75779C190.212 2.43987 189.747 2.20922 189.397 2.25701C180.647 3.42998 169.036 7.52758 166.487 14.794C160.333 14.7794 154.179 14.7867 148.025 14.8189C151.098 14.0864 154.129 12.7047 156.289 11.5535C159.954 9.60028 164.187 7.01954 165.254 3.50271C165.341 3.21492 165.028 3.0092 164.672 3.05492C158.913 3.80815 153.808 5.75826 149.129 8.41173C146.145 10.1042 142.665 12.0719 141.384 14.8615C135.635 14.9124 129.884 15.0018 124.137 15.1181C128.57 14.0002 132.661 10.9727 136.2 8.93224C140.237 6.60397 143.701 4.13438 145.636 0.481445C145.775 0.219629 145.363 -0.0743904 145.034 0.0170383C140.257 1.33754 135.546 3.01128 131.652 5.57124C127.555 8.26419 124.811 11.7187 121.303 14.8241C121.168 14.9436 121.16 15.0755 121.224 15.1815C119.605 15.2179 117.985 15.2438 116.366 15.2875C115.993 15.2968 115.993 15.7218 116.366 15.7311Z" fill="#8E9892" fill-opacity="0.7"></path></svg><svg viewBox="0 0 30 12" fill="none" id="list-logo"><path d="M29.2855 2.13375C26.2016 16.5255 16.7369 11.6187 15.4506 9.08802C14.1651 6.55663 15.4073 -3.52053 29.2855 2.13302V2.13375Z" fill="#0F805D"></path><path d="M0.803955 2.13375C3.88784 16.5255 13.3526 11.6187 14.6388 9.08802C15.9244 6.55663 14.6822 -3.52053 0.803955 2.13302V2.13375Z" fill="#0F805D"></path></svg><svg viewBox="0 0 65 36" id="logo-text"><path d="M9.47922 31.2C8.86589 31.2 8.50589 30.8933 8.39922 30.28C8.26589 29.2667 8.19922 28.3067 8.19922 27.4C8.11922 25.3467 8.05255 23.2133 7.99922 21C7.97255 18.76 7.95922 17.1333 7.95922 16.12C7.37255 16.3867 6.90589 16.76 6.55922 17.24C6.23922 17.6933 5.93255 18.28 5.63922 19C5.15922 20.3067 4.91922 21.6 4.91922 22.88V23.88C4.91922 24.04 4.90589 24.5333 4.87922 25.36C4.85255 26.1867 4.77255 27.0933 4.63922 28.08C4.47922 29.4133 3.81255 30.4133 2.63922 31.08C2.45255 31.1867 2.21255 31.24 1.91922 31.24C1.57255 31.24 1.27922 31.16 1.03922 31C0.825886 30.8133 0.759219 30.56 0.839219 30.24C0.892552 30.0533 0.972552 29.92 1.07922 29.84C1.18589 29.76 1.33255 29.68 1.51922 29.6C1.73255 29.52 1.89255 29.44 1.99922 29.36C2.39922 28.9867 2.59922 28.48 2.59922 27.84L2.63922 24.48C2.69255 23.1733 2.75922 22.1733 2.83922 21.48C2.91922 20.76 3.11922 19.9333 3.43922 19C3.54589 18.6533 3.79922 18.1067 4.19922 17.36C4.59922 16.5867 4.89255 16.0933 5.07922 15.88C3.66589 15.1867 2.67922 14.32 2.11922 13.28C1.58589 12.24 1.31922 10.72 1.31922 8.72C1.31922 7.14666 1.59922 5.6 2.15922 4.08C2.71922 2.58667 3.63922 1.64 4.91922 1.24L6.67922 0.639997C6.91922 0.533332 7.18589 0.48 7.47922 0.48C8.03922 0.48 8.67922 0.719999 9.39922 1.2C9.85255 1.46667 10.0792 1.90667 10.0792 2.52C9.91922 4.76 9.83922 6.45333 9.83922 7.6V9.08V12.36V16.48C9.83922 19.3067 9.86589 21.44 9.91922 22.88C9.94589 23.9733 9.98589 24.9467 10.0392 25.8C10.0926 26.6533 10.1326 27.36 10.1592 27.92L10.2792 30.12V30.36C10.2792 30.7067 10.2259 30.9333 10.1192 31.04C10.0126 31.1467 9.79922 31.2 9.47922 31.2ZM7.79922 2.16C7.66589 2.21333 7.35922 2.32 6.87922 2.48C6.42589 2.64 6.02589 2.82667 5.67922 3.04C5.27922 3.22667 4.90589 3.62667 4.55922 4.24C4.23922 4.82667 3.98589 5.45333 3.79922 6.12C3.61255 6.78667 3.53255 7.29333 3.55922 7.64L3.63922 9.4C3.63922 10.2267 3.65255 10.88 3.67922 11.36C3.70589 12.1067 3.91922 12.7333 4.31922 13.24C4.74589 13.72 5.33255 14.0533 6.07922 14.24C6.37255 14.32 6.70589 14.44 7.07922 14.6C7.47922 14.7333 7.77255 14.84 7.95922 14.92L7.79922 2.16ZM15.4367 31.32C15.4101 31.2133 15.3567 31.0267 15.2767 30.76C15.2234 30.4933 15.2101 30.2667 15.2367 30.08C15.2901 26.9867 15.3701 24.68 15.4767 23.16C15.5034 22.6 15.5167 21.7733 15.5167 20.68C15.5167 18.7067 15.4234 16.32 15.2367 13.52C15.0767 10.1067 14.9967 7.52 14.9967 5.76C14.9967 5.36 15.1567 5 15.4767 4.68C15.7967 4.36 16.1834 4.2 16.6367 4.2C18.1567 4.2 19.4767 4.32 20.5967 4.56C21.1301 4.66667 21.4767 4.85333 21.6367 5.12C21.7967 5.36 21.8501 5.77333 21.7967 6.36C21.4234 6.6 21.0367 6.72 20.6367 6.72C20.5034 6.72 20.3034 6.69333 20.0367 6.64C19.7967 6.58667 19.1567 6.53333 18.1167 6.48H18.0367C17.6634 6.48 17.4767 6.68 17.4767 7.08C17.3434 10.9467 17.2767 13.1467 17.2767 13.68C17.3301 16.4533 17.3834 18.5467 17.4367 19.96C17.4367 20.1467 17.4501 20.3733 17.4767 20.64C17.5034 20.9067 17.5034 21.1333 17.4767 21.32C17.3967 22.5467 17.3567 23.84 17.3567 25.2C17.3567 27.4133 17.3967 28.96 17.4767 29.84C17.4501 30.4267 17.3567 30.8267 17.1967 31.04C17.0367 31.28 16.7434 31.4 16.3167 31.4C16.2101 31.4 15.9167 31.3733 15.4367 31.32ZM29.2098 31.76C28.5165 31.76 27.8765 31.5333 27.2898 31.08C26.7032 30.6533 26.2232 30.0667 25.8498 29.32C25.0765 27.6933 24.5965 25.92 24.4098 24C24.1698 22.1867 24.0498 20.44 24.0498 18.76C24.0498 18.44 24.0632 18.1733 24.0898 17.96V17.24C24.0898 17.1067 24.0765 17.04 24.0498 17.04V16.32L24.0898 13.52C24.1165 12.6667 24.2232 11.3067 24.4098 9.44C24.5432 8.16 24.8498 6.92 25.3298 5.72C25.5165 5.18667 25.7565 4.78667 26.0498 4.52C26.3432 4.22666 26.6765 4.08 27.0498 4.08C28.1165 4.08 29.0765 4.28 29.9298 4.68C30.7832 5.05333 31.5032 5.58666 32.0898 6.28C32.6232 6.94666 33.0765 7.77333 33.4498 8.76C33.8232 9.72 34.0898 10.7467 34.2498 11.84C34.4098 12.96 34.4898 14.1467 34.4898 15.4V15.72C34.4898 16.5467 34.5032 17.2933 34.5298 17.96L34.5698 20.24C34.5698 27.92 32.7832 31.76 29.2098 31.76ZM29.0498 30.08C29.5298 30.08 29.9698 29.8933 30.3698 29.52C30.7698 29.12 31.0765 28.5867 31.2898 27.92C31.7965 26.56 32.1032 25.0933 32.2098 23.52C32.3432 22.16 32.4098 20.9867 32.4098 20C32.4098 18.8 32.3165 17.2267 32.1298 15.28C31.9698 13.2267 31.8898 11.6933 31.8898 10.68V9.96C31.8365 8.94667 31.4898 8.06667 30.8498 7.32C30.2365 6.57333 29.4765 6.2 28.5698 6.2C27.6632 6.2 27.0632 6.72 26.7698 7.76C26.5032 8.58667 26.3698 9.65333 26.3698 10.96C26.3698 11.4667 26.3832 11.8933 26.4098 12.24V13.32L26.3298 15.16C26.2765 15.72 26.2498 16.3333 26.2498 17C26.2498 18.44 26.2898 19.8667 26.3698 21.28C26.4765 23.28 26.7432 25.2267 27.1698 27.12C27.5965 29.0933 28.2232 30.08 29.0498 30.08ZM52.893 35.92C52.6796 35.9733 52.5196 36 52.413 36C52.093 36 51.8663 35.8 51.733 35.4C51.6263 35.08 51.573 34.68 51.573 34.2L51.613 31.44C51.613 31.28 51.5996 31.1333 51.573 31C51.5463 30.8667 51.5196 30.7333 51.493 30.6H46.893C47.1596 30.6 46.5196 30.7333 44.973 31C43.453 31.24 42.2663 31.4 41.413 31.48L39.613 31.64L37.613 31.84C37.613 32.08 37.613 32.3733 37.613 32.72C37.6396 33.0667 37.6396 33.48 37.613 33.96V34.16C37.613 34.5867 37.5063 34.9067 37.293 35.12C37.0796 35.3333 36.8796 35.44 36.693 35.44C36.5863 35.44 36.4263 35.3867 36.213 35.28C35.733 34.9333 35.4663 34.4533 35.413 33.84L35.293 30.92C35.2396 29.88 35.6663 29.36 36.573 29.36C37.0796 29.3333 37.4796 29.2 37.773 28.96C38.0663 28.72 38.413 28.3467 38.813 27.84C39.213 27.3067 39.5196 26.72 39.733 26.08C39.973 25.4133 40.1996 24.6133 40.413 23.68C40.653 22.6667 40.8263 21.68 40.933 20.72C41.0396 19.76 41.173 18.3867 41.333 16.6C41.573 13.8 41.693 10.9867 41.693 8.16L41.653 5.92C41.653 5.41333 41.7996 5 42.093 4.68C42.3863 4.33333 42.7863 4.16 43.293 4.16C43.453 4.16 43.573 4.17333 43.653 4.2C44.8796 4.41333 45.8796 4.54666 46.653 4.6H46.853C47.1996 4.6 47.3996 4.53333 47.453 4.4C47.693 4.08 47.9863 3.92 48.333 3.92C48.573 3.92 48.7863 3.97333 48.973 4.08C49.3996 4.24 49.6796 4.64 49.813 5.28L49.613 12.12C49.613 15.8267 49.6263 18.6 49.653 20.44C49.653 21.4 49.6796 22.8667 49.733 24.84L49.773 27.04C49.773 27.2533 49.7863 27.4533 49.813 27.64C49.8396 27.8267 49.8663 28.0133 49.893 28.2C50.4263 28.2533 50.8263 28.28 51.093 28.28C51.3063 28.28 51.4663 28.2667 51.573 28.24C52.1596 28.16 52.6796 28.3067 53.133 28.68C53.613 29.0267 53.853 29.48 53.853 30.04C53.853 30.76 53.7996 31.84 53.693 33.28C53.693 33.6533 53.6663 34.1867 53.613 34.88C53.5596 35.44 53.3196 35.7867 52.893 35.92ZM41.373 29.56C42.8663 29.4267 44.0396 29.3067 44.893 29.2C45.773 29.0667 46.6396 28.8667 47.493 28.6C47.7596 25.3733 47.893 21.92 47.893 18.24C47.893 14.8267 47.7596 11.08 47.493 7C46.7996 6.97333 45.5063 6.90667 43.613 6.8L43.573 8.68C43.3596 12.7867 43.213 15.8533 43.133 17.88C43.0263 20.92 42.5063 23.9067 41.573 26.84C41.5196 27 41.3996 27.4 41.213 28.04C41.053 28.6533 40.7996 29.1867 40.453 29.64L41.373 29.56ZM64.1677 31.36C63.5543 31.36 63.101 31.2667 62.8077 31.08C62.5143 30.8933 62.3677 30.5467 62.3677 30.04C62.3677 29.24 62.2343 27.88 61.9677 25.96L61.8077 25.12L57.8477 24.52C57.6877 25.1333 57.461 26.3733 57.1677 28.24C57.0077 29.5467 56.7543 30.4133 56.4077 30.84C56.221 31.08 55.9543 31.2 55.6077 31.2C55.2877 31.2 54.9943 31.1067 54.7277 30.92C54.461 30.7067 54.3277 30.4533 54.3277 30.16L54.4077 29.96L54.4477 29.8C56.2077 22.9467 57.541 16.1867 58.4477 9.52C58.4477 9.41333 58.461 9.24 58.4877 9C58.5143 8.73333 58.541 8.36 58.5677 7.88C58.6477 6.89333 58.7277 6.10667 58.8077 5.52C58.9143 4.93333 59.0743 4.49333 59.2877 4.2H60.6477C61.021 4.2 61.341 4.29333 61.6077 4.48C61.8743 4.64 62.0077 4.88 62.0077 5.2C62.0077 7.22667 62.2877 10.24 62.8477 14.24C63.381 18.3467 63.6477 21.2267 63.6477 22.88C63.6477 23.04 63.7143 23.4533 63.8477 24.12C63.981 24.7333 64.0477 25.1333 64.0477 25.32C64.0477 25.5067 64.181 26.3067 64.4477 27.72C64.6877 29 64.8077 29.8267 64.8077 30.2V30.24C64.8077 30.8267 64.5943 31.2 64.1677 31.36ZM61.5277 23.68C61.4477 23.28 61.4077 22.7867 61.4077 22.2C61.4077 19.8 61.1943 16.7333 60.7677 13L60.3677 8.84C59.221 15.1067 58.4343 19.84 58.0077 23.04C58.4077 23.3067 59.581 23.52 61.5277 23.68Z"></path></svg><svg viewBox="0 0 36 44" fill="none" id="logo"><path d="M6.40836 13.4441C6.40836 13.4441 4.54503 14.5628 4.12975 16.4023C3.71448 18.2418 4.12975 20.2561 4.12975 20.2561C4.12975 20.2561 1.20764 21.4615 1.20764 25.2524C1.20764 29.0434 3.67259 30.1151 3.67259 30.1151C3.67259 30.1151 3.70148 34.5893 6.45964 37.0023C9.21781 39.4152 12.1118 39.4268 12.1118 39.4268C12.1118 39.4268 13.6169 42.6103 18.0448 42.6103C22.4728 42.6103 23.9786 39.4268 23.9786 39.4268C23.9786 39.4268 26.9758 38.9891 29.6307 37.0023C32.2856 35.0162 32.2126 30.1151 32.2126 30.1151C32.2126 30.1151 34.8827 29.0441 34.8827 25.2524C34.8827 21.4608 31.9599 20.2568 31.9599 20.2568C31.9599 20.2568 32.3766 18.2418 31.9599 16.4023C31.5431 14.5628 29.6813 13.4441 29.6813 13.4441" fill="#B22EC8"></path><path d="M32.0457 19.1423C32.0457 11.4008 25.7696 9.22046 18.0289 9.22046C10.2881 9.22046 4.01196 11.4016 4.01196 19.1423C4.01196 26.8831 10.2881 33.1592 18.0289 33.1592C25.7696 33.1592 32.0457 26.8831 32.0457 19.1423Z" fill="#B22EC8"></path><path d="M18.4745 42.6002C18.4745 42.6002 22.2647 39.9497 22.017 33.8534C23.647 32.1576 24.1526 29.879 22.672 27.11C25.1731 23.5451 24.9131 19.6885 21.9209 16.7649C23.1538 14.9853 22.5088 13.4441 21.1149 12.2864C21.1149 12.2864 25.1269 14.2537 28.1999 11.4407C28.1999 11.4407 34.6588 16.0846 31.9598 20.2568C31.9598 20.2568 39.091 25.0762 32.2126 30.1152C32.2126 30.1152 33.2172 37.796 24.1526 39.3957C24.1526 39.3957 21.7664 42.0968 18.4745 42.6002Z" fill="#6A107A"></path><path d="M32.2856 3.13375C29.2017 17.5255 19.737 12.6187 18.4507 10.088C17.1652 7.55664 18.4074 -2.52053 32.2856 3.13302V3.13375Z" stroke="black" stroke-width="2" stroke-miterlimit="10" stroke-linecap="round" stroke-linejoin="round"></path><path d="M24.9132 6.04575C22.6526 6.91386 19.7572 8.30991 18.4746 10.1299M3.80408 3.13375C6.88797 17.5255 16.3527 12.6187 17.639 10.088C18.9245 7.55664 17.6823 -2.52053 3.80408 3.13302V3.13375Z" stroke="black" stroke-width="2" stroke-miterlimit="10" stroke-linecap="round" stroke-linejoin="round"></path><path d="M11.1765 6.04565C13.4378 6.91377 16.3324 8.30982 17.6151 10.1298M6.40837 13.4441C6.40837 13.4441 4.54503 14.5628 4.12975 16.4023C3.71448 18.2418 4.12975 20.2561 4.12975 20.2561C4.12975 20.2561 1.20764 21.4615 1.20764 25.2524C1.20764 29.0434 3.67259 30.1152 3.67259 30.1152C3.67259 30.1152 3.70148 34.5893 6.45964 37.0023C9.21781 39.4152 12.1118 39.4268 12.1118 39.4268C12.1118 39.4268 13.6169 42.6103 18.0448 42.6103C22.4728 42.6103 23.9786 39.4268 23.9786 39.4268C23.9786 39.4268 26.9758 38.9891 29.6307 37.0023C32.2856 35.0162 32.2126 30.1152 32.2126 30.1152C32.2126 30.1152 34.8827 29.0441 34.8827 25.2524C34.8827 21.4608 31.9599 20.2568 31.9599 20.2568C31.9599 20.2568 32.3766 18.2418 31.9599 16.4023C31.5431 14.5628 29.6813 13.4441 29.6813 13.4441" stroke="black" stroke-width="2" stroke-miterlimit="10" stroke-linecap="round" stroke-linejoin="round"></path><path d="M22.5088 16.2876C22.5088 16.2876 20.6195 18.286 18.2882 18.286M13.9064 16.2876C13.9064 16.2876 15.7958 18.286 18.1271 18.286M28.1559 23.5452C28.1559 25.6339 26.3633 27.3268 24.1526 27.3268M19.9955 23.5452C19.9955 25.6339 21.788 27.3268 23.9988 27.3268M16.471 23.5452C16.471 25.6339 14.6785 27.3268 12.467 27.3268M8.30994 23.5452C8.30994 25.6339 10.1025 27.3268 12.3139 27.3268M22.2647 33.9004C21.5107 34.9036 19.9825 35.5897 18.2195 35.5897M13.9129 33.7777C14.6315 34.8465 16.2118 35.5897 18.0455 35.5897M13.8761 34.0362C13.8761 34.9318 13.3207 35.7399 12.4331 36.3069M22.308 34.0362C22.308 35.0134 22.9674 35.8851 23.9988 36.4542" stroke="black" stroke-width="2" stroke-miterlimit="10" stroke-linecap="round" stroke-linejoin="round"></path><path d="M8.90802 25.8187C8.90802 27.5274 7.70841 28.9712 6.06102 29.4399M10.0643 16.2622C10.0643 18.4975 8.27175 20.3103 6.0603 20.3103M25.4917 16.2622C25.4917 18.4975 27.2842 20.3103 29.4957 20.3103M27.5702 25.8187C27.5702 27.4509 28.6651 28.8412 30.1991 29.372" stroke="black" stroke-width="2" stroke-miterlimit="10" stroke-linecap="round" stroke-linejoin="round"></path></svg><svg viewBox="0 0 76 32" fill="none" id="news-leaf"><path d="M63.4201 14.4037C62.8147 13.5202 62.2418 12.6248 61.7111 11.6939C60.9991 10.4426 59.5385 6.09088 61.5365 5.02096C61.0946 6.88371 63.0188 9.62211 63.6293 11.2393C64.379 13.2234 65.1519 15.7833 66.3103 17.8226C65.2201 16.8611 64.31 15.6995 63.4201 14.4037ZM66.7299 12.7254C66.9003 14.3505 67.1308 15.9726 67.3797 17.5908C66.6945 15.9243 65.7974 14.2864 65.1157 12.6761C64.0239 10.0925 63.2534 7.38761 62.1571 4.81092C62.1784 4.80796 62.1948 4.79909 62.2168 4.79711C65.5072 4.35928 66.5043 10.5717 66.7299 12.7254ZM67.0227 29.3905C66.6404 30.2149 65.5103 30.3273 65.0441 29.497C64.7177 28.9172 65.2462 27.9903 65.6281 27.587C65.6845 27.5268 65.7336 27.4913 65.7829 27.4538C65.8874 27.5061 66.0328 27.4765 66.0862 27.3651C66.0883 27.3601 66.0891 27.3562 66.0917 27.3513C66.3849 27.3907 66.5994 27.8325 67.0414 28.0544C67.1141 28.0908 67.1872 28.1086 67.2584 28.1135C67.2774 28.5602 67.198 29.0099 67.0227 29.3905ZM59.6459 25.952C59.1177 27.4854 58.4512 29.2288 57.3129 30.3964C56.9377 30.7819 56.5987 30.7652 56.2999 30.5739C56.6692 28.4695 57.1581 26.735 58.1249 24.7618C58.7015 23.5824 59.418 22.4277 59.9465 21.2098C60.0838 21.1033 60.2195 21.0008 60.3557 20.9002C60.2635 22.688 60.2486 24.1987 59.6459 25.952ZM56.0384 25.381C56.643 24.3466 57.5158 23.3605 58.4632 22.475C57.9283 23.5351 57.426 24.6138 56.9317 25.6631C56.3682 26.8602 55.7307 28.2338 55.4909 29.6016C55.4723 29.569 55.451 29.5355 55.4327 29.5039C54.6625 28.1688 55.3499 26.5584 56.0384 25.381ZM44.2489 13.7884C43.5626 12.9019 42.9118 11.9986 42.3333 11.0342C41.9368 10.3745 41.7965 9.61325 41.3397 9.00581C41.2673 8.90818 41.1428 8.93185 41.064 9.00186C41.0182 7.75049 41.1778 6.3739 41.3568 5.18071C41.506 4.18475 41.8719 3.49348 42.3463 3.07045C43.1177 7.60849 44.3291 12.1357 46.5849 16.1274C45.7356 15.4401 44.9463 14.6877 44.2489 13.7884ZM46.6882 5.57811C47.4446 8.94664 45.9735 12.4019 46.9381 15.6275C46.106 13.6563 45.2529 11.6969 44.5495 9.6655C43.7692 7.41522 43.7525 4.93221 42.8547 2.74405C44.2545 2.09815 46.1586 3.21837 46.6882 5.57811ZM42.9763 25.1986C42.955 24.3801 43.7808 23.8654 44.4619 23.7204C45.3096 23.538 45.3619 24.3999 45.4111 25.1276C45.4145 25.1799 45.4335 25.2302 45.4622 25.2716C44.8471 26.2537 43.0121 26.591 42.9763 25.1986ZM37.3622 19.7701C35.9251 21.7788 35.1706 24.1888 33.397 25.948C32.6112 26.7281 31.8291 26.8967 31.1913 26.6827C32.5963 22.5608 35.7326 19.5433 39.3994 17.6313C38.6538 18.1874 38.0026 18.8757 37.3622 19.7701ZM29.8318 23.6563C30.0965 22.3498 30.9025 21.336 31.7992 20.4298C33.359 18.853 35.2344 18.1066 37.2093 17.5977C36.3742 18.1716 35.6118 18.8688 35.0292 19.3855C32.9902 21.196 31.2961 23.4493 30.3166 26.0388C29.8616 25.452 29.6441 24.5803 29.8318 23.6563ZM21.0425 4.23898C20.6471 3.13355 20.9566 2.31016 21.9715 1.76781C23.1852 5.28228 24.6171 8.86774 26.6364 11.9917C24.1207 9.98796 22.0226 7.40042 21.0425 4.23898ZM23.211 1.3211C23.9625 1.59622 24.613 2.03405 25.162 2.63065C26.5846 3.97964 26.793 6.10962 26.8979 7.96448C26.9803 9.42785 26.928 10.8666 27.3336 12.2097C26.3191 10.2937 25.3355 8.36188 24.4022 6.40151C23.679 4.88291 23.3937 2.95212 22.3818 1.58735C22.631 1.48874 22.8995 1.39604 23.211 1.3211ZM9.03025 30.5462C8.97249 30.5551 8.92245 30.5472 8.86841 30.5482C10.0183 26.6985 10.9459 22.8399 12.5281 19.1597C12.2759 20.0659 12.1577 21.0373 12.0421 21.8222C11.7388 23.8782 11.3931 26.2034 11.6512 28.29C11.0577 29.3649 10.3615 30.3737 9.03025 30.5462ZM7.52153 26.2113C8.10713 24.1553 9.55579 22.5066 10.9712 20.8499C9.52075 23.8338 8.49469 27.1107 8.21645 30.3658C7.15564 29.6499 7.2769 27.0683 7.52153 26.2113ZM6.29858 14.3239C5.27472 13.959 4.30308 13.3999 3.38779 12.8112C3.00815 12.5647 0.143278 9.27797 0.866465 8.74449C2.7131 10.3104 4.86147 11.5342 6.94758 12.7096C8.61662 13.6503 10.4122 14.7163 12.2614 15.4017C10.2637 15.1256 8.27384 15.0269 6.29858 14.3239ZM13.525 15.3149C11.6303 13.9935 9.35661 13.0991 7.33696 12.0213C5.3956 10.9849 3.54743 9.76609 1.63443 8.68434C6.32322 8.85986 11.007 11.2196 13.525 15.3149ZM17.3138 24.5369C16.0989 24.4837 15.6436 23.256 16.2463 22.3014C16.9397 21.199 18.1306 21.7581 18.981 22.2551C19.0671 23.1949 18.3383 24.5803 17.3138 24.5369ZM2.9097 26.3277C2.39983 26.3523 2.21812 25.7982 2.16522 25.3653C2.10144 24.8416 2.44718 24.4058 2.84248 24.1287C3.20876 23.8723 3.67051 23.7283 4.10763 23.8398C4.41986 23.9196 4.55974 24.3131 4.85927 24.4373C4.66038 25.3505 3.82309 26.2823 2.9097 26.3277ZM14.5784 5.4016C15.7395 5.68855 15.5339 7.42015 15.2642 8.27115C15.1173 8.73462 14.8465 9.23557 14.4512 9.5245C13.6474 9.67932 12.8294 8.7435 12.427 7.86389C11.7042 6.28218 12.9988 5.01307 14.5784 5.4016ZM31.3378 6.72692C30.9186 5.62348 31.2834 4.45 32.4016 4.04274C33.4723 3.65027 34.1841 4.54664 34.1986 5.58698C34.206 6.08694 34.0497 6.56027 33.7846 6.97148C33.5209 7.38071 33.0222 7.50692 32.6451 7.76528C32.6145 7.78599 32.6037 7.81854 32.5787 7.84418C32.0279 7.80375 31.6164 7.46354 31.3378 6.72692ZM53.5429 10.3006C54.2332 9.91006 54.8565 10.5274 55.0728 11.1703C55.3805 12.0824 54.883 12.5508 54.5625 13.3279C54.5581 13.3407 54.5562 13.3525 54.5521 13.3654C52.9703 13.4226 51.7171 11.3281 53.5429 10.3006ZM75.4566 18.432C73.2988 19.0157 71.1184 19.355 68.9234 19.5078C68.7861 19.4467 68.6564 19.3796 68.5243 19.3135C68.5844 17.1234 67.8835 14.8889 67.6575 12.7254C67.483 11.0559 67.3405 9.22571 66.5755 7.71303C65.5864 5.7566 63.5733 3.00537 61.1527 4.27449C58.2547 5.79506 60.283 10.9573 61.3459 12.9049C62.6178 15.238 64.4387 18.2308 66.8993 19.5995C64.7191 19.6409 62.5271 19.5157 60.3318 19.2702C57.9313 18.4428 56.6434 16.1669 55.3481 14.0931C56.7199 13.7509 56.7859 11.616 56.3111 10.4869C55.6822 8.99003 54.2619 8.35794 52.8103 9.00581C51.1654 9.73848 50.6936 11.7925 51.6544 13.2786C52.0699 13.9215 52.7569 14.4136 53.5081 14.5023C53.9643 14.5566 54.36 14.4757 54.7173 14.2972C54.9117 15.5861 55.7826 16.6925 56.6061 17.6421C57.0458 18.149 57.5426 18.6114 58.0906 18.9842C54.6826 18.4901 51.274 17.7594 47.8955 16.9814C47.881 15.4273 47.5147 13.9215 47.6079 12.3408C47.7042 10.7187 47.8653 9.11033 47.8217 7.48227C47.7605 5.25072 47.0027 2.55472 44.7592 1.69286C39.9559 -0.152138 39.963 6.51983 40.9331 9.55111C40.8701 11.1772 42.7171 13.2461 43.5362 14.3554C44.2061 15.2626 44.9445 15.9332 45.7614 16.4834C42.6932 15.7655 39.6549 15.0417 36.671 14.4619C35.924 13.7677 35.25 12.9916 34.6637 12.1456C33.9133 11.0618 33.6783 9.90415 33.3064 8.72181C35.8639 8.60939 36.1885 1.52621 31.9126 2.97677C30.1316 3.58027 29.6109 5.67179 30.367 7.31464C30.7399 8.12423 31.7522 8.95256 32.6041 8.85592C32.594 10.0106 33.2676 11.2472 33.8133 12.1505C34.2851 12.9305 34.8718 13.6454 35.5469 14.2499C33.3467 13.8495 31.0144 13.5508 28.6434 13.4196C28.5412 13.3545 28.4401 13.2894 28.3391 13.2234C27.8486 9.76807 28.7553 5.1383 26.3477 2.31509C25.0781 0.825085 22.2409 -1.25361 20.6027 0.980898C18.9832 3.19371 20.5001 5.98241 21.7563 7.9773C23.1371 10.1714 24.9371 12.1012 27.1309 13.3585C25.1101 13.3111 23.0774 13.3999 21.0861 13.6612C20.333 13.2244 19.5744 12.8013 18.8318 12.3457C17.7368 11.6752 16.7961 10.8173 15.7648 10.0629C16.0829 9.63395 16.3045 9.11625 16.4563 8.61137C17.0254 6.71608 16.5163 4.3514 14.3344 4.10093C13.2278 3.97372 11.9812 4.49635 11.3819 5.47259C10.8023 6.41432 11.0943 7.65386 11.5501 8.57389C11.8142 9.1054 12.2148 9.56788 12.668 9.89625C12.6724 9.94753 12.6817 9.99684 12.7019 10.0432C13.073 10.9277 14.0808 11.2295 14.8939 10.8232C15.1001 10.7196 15.2836 10.5865 15.4474 10.4307C16.4973 12.045 18.3268 13.0291 20.1205 13.8012C18.0925 14.1296 16.1195 14.6522 14.2609 15.4086C12.1409 10.0215 5.77419 7.73866 0.480428 7.7219C0.216036 7.72091 0.0489407 7.93786 0.0254519 8.19227C-0.488914 13.8929 6.90614 16.9735 11.9563 16.5081C9.29732 17.9803 6.9662 20.0511 5.17026 22.8773C4.92373 22.6219 4.58247 22.4444 4.26728 22.3616C3.17706 22.0806 1.90331 22.8142 1.28344 23.7066C0.566554 24.7391 0.687053 26.1837 1.51508 27.1156C2.28906 27.9873 3.5799 27.6441 4.36954 27.0101C5.24417 26.307 5.74211 25.2154 5.54665 24.0745C5.53882 24.0261 5.52278 23.9847 5.50073 23.9512C5.50302 23.9413 5.50378 23.9325 5.50445 23.9226C5.55592 23.9019 5.60557 23.8703 5.65102 23.8269C7.33171 22.2038 8.96313 20.7897 10.6427 19.5906C7.91692 22.2837 5.26469 26.1581 6.76855 29.4221C8.60135 33.403 12.5426 30.2662 12.7672 26.9549C12.7761 26.8316 12.6724 26.7793 12.5751 26.7892C12.7914 25.6897 12.8361 24.533 12.9473 23.4384C13.0902 22.0441 13.3158 20.6882 13.6373 19.3273C13.7936 18.6667 14.0525 18.0858 14.1759 17.4537C16.2232 16.4262 18.4234 15.6886 20.9186 15.2587C20.1783 15.7961 19.593 16.4933 19.0702 17.3285C18.5808 18.1115 17.9594 19.2544 17.708 20.3243C17.6211 20.3154 17.5342 20.3066 17.4425 20.3085C16.5663 20.3243 15.845 20.9169 15.3828 21.6447C14.3564 23.2589 15.2128 25.2085 17.0848 25.4708C18.6207 25.6877 19.6124 24.2707 19.7754 22.8458C19.8613 22.0953 19.5778 21.3291 19.0616 21.0284C18.9399 20.8736 18.7957 20.7444 18.6349 20.6379C18.9377 19.9851 19.1216 19.2248 19.3525 18.6114C19.8971 17.1688 20.6434 15.9263 21.9227 15.0999C22.3718 15.0378 22.8305 14.9885 23.299 14.9461C28.1362 14.5132 33.0185 15.2557 37.806 16.2438C32.8585 16.5998 26.5197 21.4889 28.9574 26.4736C30.2785 29.1756 33.5779 27.4735 34.9061 25.8968C37.3521 22.9957 38.0048 19.0078 41.3549 17.011C41.9529 17.1441 42.5485 17.2772 43.1415 17.4094C44.7831 17.7742 46.4547 18.1618 48.1424 18.5464C47.0258 19.6025 45.9512 20.9899 45.5021 22.4918C45.2041 22.3606 44.8706 22.3024 44.5626 22.3024C43.0016 22.3005 41.5482 23.6701 41.647 25.3189C41.7559 27.1343 43.4272 27.7082 44.8864 27.0623C45.5036 26.7892 46.106 26.2883 46.313 25.6049C46.4171 25.2617 46.3895 24.96 46.2858 24.6849C46.5002 24.2362 46.5241 23.7559 46.2776 23.2116C46.2238 23.0943 46.1508 22.9937 46.0709 22.901C46.4069 22.3902 46.6714 21.8419 46.9616 21.2769C47.4402 20.345 48.0421 19.4743 48.7105 18.6765C52.2396 19.4723 55.8445 20.2267 59.4512 20.6537C59.427 20.6961 59.4016 20.7375 59.3773 20.7799C57.2685 22.0381 55.2354 23.8417 54.3794 26.2044C53.6745 28.149 54.0023 31.2937 56.3197 31.9396C58.1849 32.4563 59.5165 29.5237 60.0868 28.221C61.1725 25.741 61.6029 23.4384 61.0438 20.8144C62.9527 20.987 64.8586 21.0481 66.7508 20.9712C66.1153 21.8133 65.6972 22.7698 65.4148 23.8457C65.2589 24.4383 65.1339 25.1582 65.1693 25.8386C64.9758 25.9342 64.7915 26.0526 64.6267 26.1936C63.4813 27.1708 62.8453 29.0848 63.7077 30.4545C64.7013 32.0333 67.0518 31.8804 67.8895 30.2593C68.3919 29.286 68.3188 28.1224 67.8093 27.23C67.7706 26.5614 67.258 25.9628 66.6352 25.7252C66.5684 25.7005 66.5016 25.6848 66.4341 25.668C66.4651 25.1582 66.4726 24.6444 66.5427 24.1672C66.7083 23.0489 67.1051 21.9474 67.6102 20.9386C70.3489 20.7602 73.0545 20.2622 75.6918 19.3126C76.2252 19.1213 76.0141 18.2801 75.4566 18.432Z" fill="#8E9892" fill-opacity="0.7"></path></svg><svg viewBox="0 0 33 32" fill="none" id="snowflake"><path d="M16.5041 28C16.2766 28 16.0584 27.921 15.8976 27.7803C15.7367 27.6397 15.6464 27.4489 15.6464 27.25V25.3105L14.5382 26.281C14.3772 26.4216 14.1588 26.5006 13.9312 26.5004C13.7036 26.5003 13.4854 26.4211 13.3246 26.2803C13.1638 26.1394 13.0735 25.9485 13.0737 25.7495C13.0738 25.5504 13.1644 25.3596 13.3255 25.219L15.6464 23.1895V17.299L9.81405 20.2435L8.96322 23.0185C8.90408 23.2106 8.76007 23.3744 8.56286 23.4737C8.36566 23.573 8.13143 23.5997 7.91169 23.548C7.69195 23.4963 7.5047 23.3704 7.39114 23.1979C7.27758 23.0255 7.24701 22.8206 7.30616 22.6285L7.7127 21.3055L5.79147 22.2745C5.59458 22.3724 5.3614 22.3982 5.14282 22.3463C4.92425 22.2944 4.73802 22.169 4.62477 21.9975C4.51152 21.826 4.48045 21.6223 4.53834 21.4308C4.59624 21.2393 4.73839 21.0757 4.93377 20.9755L6.85501 20.0065L5.33861 19.651C5.2298 19.6254 5.12783 19.5813 5.03852 19.5212C4.9492 19.4612 4.87429 19.3863 4.81806 19.3009C4.76183 19.2155 4.72539 19.1213 4.7108 19.0236C4.69622 18.9259 4.70379 18.8266 4.73307 18.7315C4.76236 18.6364 4.81279 18.5472 4.88148 18.4691C4.95017 18.391 5.03579 18.3255 5.13343 18.2763C5.23107 18.2271 5.33884 18.1953 5.45057 18.1825C5.5623 18.1698 5.6758 18.1764 5.78461 18.202L8.95464 18.9445L14.7887 16L8.95636 13.0555L5.78289 13.798C5.56458 13.8456 5.33363 13.8162 5.13983 13.7163C4.94602 13.6164 4.80488 13.4539 4.74682 13.2638C4.68877 13.0737 4.71845 12.8713 4.82947 12.7002C4.94049 12.5291 5.12395 12.4029 5.34032 12.349L6.85501 11.9935L4.93377 11.0245C4.83544 10.9756 4.74914 10.9102 4.67984 10.832C4.61054 10.7539 4.5596 10.6645 4.52996 10.569C4.50033 10.4736 4.49258 10.3739 4.50715 10.2758C4.52173 10.1778 4.55836 10.0832 4.61491 9.9975C4.67147 9.91185 4.74685 9.83682 4.8367 9.77674C4.92655 9.71665 5.02911 9.67271 5.13847 9.64743C5.24782 9.62214 5.36182 9.61603 5.47389 9.62943C5.58596 9.64283 5.69389 9.67548 5.79147 9.7255L7.7127 10.6945L7.30616 9.37C7.27494 9.27427 7.26584 9.17406 7.27937 9.07522C7.29291 8.97638 7.32881 8.88088 7.38498 8.79429C7.44116 8.70771 7.51648 8.63177 7.60656 8.5709C7.69664 8.51004 7.79968 8.46546 7.90967 8.43977C8.01966 8.41409 8.13439 8.4078 8.24718 8.42129C8.35997 8.43478 8.46857 8.46776 8.56663 8.51832C8.66469 8.56889 8.75027 8.63602 8.81836 8.71579C8.88645 8.79557 8.93569 8.88641 8.96322 8.983L9.81234 11.7565L15.6464 14.701V8.8105L13.3255 6.781C13.2457 6.71137 13.1824 6.62868 13.1392 6.53766C13.096 6.44664 13.0738 6.34908 13.0737 6.25053C13.0736 6.15198 13.0957 6.05439 13.1388 5.96332C13.1818 5.87225 13.245 5.78948 13.3246 5.71975C13.4042 5.65002 13.4988 5.59468 13.6029 5.55691C13.707 5.51913 13.8185 5.49965 13.9312 5.49958C14.0439 5.49951 14.1555 5.51885 14.2597 5.5565C14.3638 5.59415 14.4585 5.64937 14.5382 5.719L15.6464 6.6895V4.75C15.6464 4.55109 15.7367 4.36032 15.8976 4.21967C16.0584 4.07902 16.2766 4 16.5041 4C16.7315 4 16.9497 4.07902 17.1105 4.21967C17.2714 4.36032 17.3618 4.55109 17.3618 4.75V6.6895L18.4716 5.719C18.6327 5.57837 18.851 5.49944 19.0786 5.49958C19.3062 5.49972 19.5244 5.57892 19.6853 5.71975C19.8461 5.86058 19.9363 6.05151 19.9362 6.25053C19.936 6.44955 19.8455 6.64037 19.6844 6.781L17.3618 8.8105V14.701L23.1941 11.7565L24.0449 8.9815C24.1041 8.78935 24.2481 8.62562 24.4453 8.52632C24.6425 8.42701 24.8767 8.40028 25.0964 8.452C25.3162 8.50372 25.5034 8.62965 25.617 8.80209C25.7306 8.97453 25.7611 9.17935 25.702 9.3715L25.2971 10.6945L27.2184 9.7255C27.4153 9.62761 27.6485 9.6018 27.867 9.65369C28.0856 9.70558 28.2718 9.83096 28.3851 10.0025C28.4983 10.174 28.5294 10.3777 28.4715 10.5692C28.4136 10.7607 28.2715 10.9243 28.0761 11.0245L26.1548 11.9935L27.6695 12.349C27.8893 12.4007 28.0765 12.5266 28.1901 12.6991C28.3036 12.8715 28.3342 13.0764 28.2751 13.2685C28.2159 13.4606 28.0719 13.6244 27.8747 13.7237C27.6775 13.823 27.4433 13.8497 27.2235 13.798L24.0535 13.0555L18.2195 16L24.0518 18.9445L27.2235 18.202C27.4433 18.1505 27.6774 18.1774 27.8745 18.2768C28.0715 18.3763 28.2153 18.5401 28.2742 18.7323C28.3331 18.9244 28.3023 19.1291 28.1886 19.3014C28.0749 19.4737 27.8876 19.5995 27.6678 19.651L26.1531 20.0065L28.0744 20.9755C28.2698 21.0757 28.4119 21.2393 28.4698 21.4308C28.5277 21.6223 28.4966 21.826 28.3834 21.9975C28.2701 22.169 28.0839 22.2944 27.8653 22.3463C27.6467 22.3982 27.4136 22.3724 27.2167 22.2745L25.2954 21.3055L25.7003 22.63C25.7315 22.7257 25.7406 22.8259 25.727 22.9248C25.7135 23.0236 25.6776 23.1191 25.6214 23.2057C25.5653 23.2923 25.4899 23.3682 25.3999 23.4291C25.3098 23.49 25.2067 23.5345 25.0968 23.5602C24.9868 23.5859 24.872 23.5922 24.7592 23.5787C24.6464 23.5652 24.5379 23.5322 24.4398 23.4817C24.3417 23.4311 24.2562 23.364 24.1881 23.2842C24.12 23.2044 24.0707 23.1136 24.0432 23.017L23.1941 20.2435L17.3618 17.299V23.1895L19.6827 25.219C19.8437 25.3596 19.9343 25.5504 19.9345 25.7495C19.9346 25.9485 19.8444 26.1394 19.6835 26.2803C19.5227 26.4211 19.3045 26.5003 19.0769 26.5004C18.8493 26.5006 18.631 26.4216 18.4699 26.281L17.36 25.3105V27.25C17.36 27.4489 17.2697 27.6397 17.1088 27.7803C16.948 27.921 16.7298 28 16.5024 28H16.5041Z" fill="#0F805D"></path></svg><svg viewBox="0 0 32 32" fill="none" id="telegram"><circle cx="16" cy="16" r="15.5" stroke="#0F805D"></circle><path d="M23.1562 7.81204C22.9837 7.66906 22.7757 7.57542 22.5543 7.54106C22.3329 7.50669 22.1063 7.53288 21.8986 7.61684L7.56501 13.4032C7.33339 13.4984 7.13619 13.6618 6.9996 13.8717C6.86301 14.0816 6.79349 14.328 6.80026 14.5784C6.80703 14.8287 6.88977 15.071 7.03751 15.2732C7.18524 15.4754 7.39098 15.6279 7.62741 15.7104L10.7202 16.784L12.3962 22.3248C12.3994 22.336 12.4098 22.3432 12.4146 22.3536C12.4319 22.3978 12.4571 22.4385 12.489 22.4736C12.5375 22.5278 12.6001 22.5674 12.6698 22.588C12.6778 22.5912 12.6834 22.5984 12.6914 22.6H12.6962L12.6986 22.6008C12.7605 22.6142 12.8248 22.6108 12.885 22.5912C12.8914 22.5896 12.8978 22.5896 12.905 22.5872C12.9628 22.567 13.0151 22.5336 13.0578 22.4896C13.0626 22.484 13.0706 22.4832 13.0754 22.4784L15.4858 19.8176L19.0034 22.5416C19.217 22.7088 19.4802 22.7992 19.7514 22.7992C20.3386 22.7992 20.845 22.388 20.9658 21.8144L23.5754 9.00004C23.6197 8.7825 23.6041 8.55703 23.5302 8.34766C23.4564 8.1383 23.3271 7.9529 23.1562 7.81124V7.81204ZM13.2706 17.836L12.705 20.5856L11.525 16.6832L17.377 13.6352L13.3794 17.6336C13.3241 17.689 13.2862 17.7594 13.2706 17.836ZM20.1818 21.6536C20.1668 21.7262 20.1334 21.7936 20.0848 21.8495C20.0361 21.9054 19.974 21.9479 19.9042 21.9728C19.8362 21.999 19.7624 22.0071 19.6903 21.9961C19.6182 21.9852 19.5502 21.9556 19.493 21.9104L15.6826 18.9592C15.603 18.8978 15.5031 18.8685 15.4028 18.8774C15.3026 18.8863 15.2094 18.9327 15.1418 19.0072L13.4642 20.856L14.029 18.1144L19.7802 12.3624C19.8476 12.2949 19.8885 12.2054 19.8958 12.1103C19.903 12.0152 19.8759 11.9206 19.8196 11.8436C19.7632 11.7667 19.6811 11.7124 19.5882 11.6906C19.4954 11.6688 19.3977 11.681 19.313 11.7248L11.0226 16.0432L7.88901 14.9536C7.80593 14.9262 7.73346 14.8735 7.6817 14.803C7.62994 14.7325 7.60146 14.6475 7.60021 14.56C7.59623 14.4718 7.61981 14.3845 7.66769 14.3102C7.71557 14.236 7.78537 14.1784 7.86741 14.1456L22.1986 8.35924C22.2721 8.32804 22.3527 8.31795 22.4316 8.3301C22.5105 8.34226 22.5844 8.37618 22.645 8.42804C22.7053 8.47683 22.7509 8.54142 22.7766 8.6146C22.8023 8.68778 22.8071 8.76666 22.7906 8.84244L20.1818 21.6544V21.6536Z" fill="#0F805D"></path></svg><svg viewBox="0 0 32 32" fill="none" id="vkontakte"><circle cx="16" cy="16" r="15.5" stroke="#0F805D"></circle><g clip-path="url(#vkontakte_0)"><path d="M7.3999 13.1755C7.3999 12.6726 7.74307 12.4014 8.4294 12.3619L11.0741 12.3767C11.2516 12.3767 11.37 12.4507 11.4291 12.5986C11.7013 13.3383 12.006 13.9768 12.3433 14.5143C12.6805 15.0518 13.1213 15.6706 13.6656 16.3708C13.713 16.4596 13.7899 16.5039 13.8964 16.5039C13.9792 16.5039 14.0443 16.4694 14.0916 16.4004L14.1449 16.2377L14.1626 13.6785C14.1626 13.501 14.1123 13.3826 14.0118 13.3235C13.9112 13.2643 13.7248 13.2199 13.4526 13.1903C13.2396 13.1608 13.1331 13.0523 13.1331 12.8649C13.1331 12.8254 13.1391 12.7959 13.1509 12.7761C13.3994 12.1351 14.1094 11.8146 15.2809 11.8146L16.2749 11.7998C16.7246 11.7998 17.0973 11.8935 17.3931 12.0809C17.689 12.2682 17.8369 12.5641 17.8369 12.9684V16.3264C17.9197 16.3757 17.9966 16.4004 18.0676 16.4004C18.2451 16.4004 18.399 16.3116 18.5291 16.1341C19.8308 14.6154 20.5349 13.5996 20.6414 13.0868C20.6414 13.0769 20.6532 13.0523 20.6769 13.0128C20.7597 12.8649 20.8958 12.7367 21.0851 12.6282C21.2745 12.5197 21.4401 12.4458 21.5821 12.4063C21.6295 12.3866 21.6827 12.3767 21.7419 12.3767H24.4931L24.6706 12.3915C24.9073 12.3915 25.0907 12.4852 25.2209 12.6726C25.2682 12.7318 25.3007 12.7959 25.3185 12.8649C25.3362 12.9339 25.3481 13.003 25.354 13.072C25.3599 13.141 25.3629 13.1805 25.3629 13.1903V13.2939C25.28 13.6982 25.07 14.1297 24.7327 14.5883C24.3955 15.0468 23.9665 15.5424 23.4459 16.075C22.9252 16.6075 22.5998 16.9576 22.4696 17.1252C22.3631 17.2436 22.3099 17.3521 22.3099 17.4507C22.3099 17.5296 22.3572 17.6183 22.4519 17.717L25.0434 20.4389C25.1854 20.5966 25.2564 20.7692 25.2564 20.9566C25.2564 21.1834 25.1499 21.3708 24.9369 21.5187C24.7239 21.6667 24.4695 21.7505 24.1736 21.7702L23.8719 21.785H21.1739C21.162 21.785 21.1384 21.7875 21.1029 21.7924C21.0674 21.7973 21.0437 21.7998 21.0319 21.7998C20.7715 21.7998 20.529 21.7061 20.3041 21.5187C20.2213 21.4398 19.6651 20.858 18.6356 19.7732C18.5765 19.7041 18.4936 19.64 18.3871 19.5809C18.3398 19.7387 18.2777 19.9655 18.2008 20.2613C18.1238 20.5572 18.0676 20.7692 18.0321 20.8974L17.9789 21.1489C17.8605 21.4941 17.612 21.7012 17.2334 21.7702L16.9849 21.785H15.2454C14.2632 21.785 13.284 21.4103 12.3078 20.6608C11.3315 19.9112 10.4529 18.9423 9.6719 17.7539C8.8909 16.5656 8.16315 15.1824 7.48865 13.6045C7.42949 13.4763 7.3999 13.3333 7.3999 13.1755ZM18.0676 17.0069C17.8191 17.0069 17.5943 16.9502 17.3931 16.8368C17.192 16.7234 17.0914 16.568 17.0914 16.3708V12.9684C17.0914 12.7712 17.0322 12.6307 16.9139 12.5468C16.7955 12.463 16.5885 12.4211 16.2926 12.4211L15.2809 12.4507C14.7721 12.4507 14.3875 12.5247 14.1271 12.6726C14.6478 12.8797 14.9081 13.215 14.9081 13.6785V16.2821C14.8845 16.5286 14.7661 16.7332 14.5531 16.896C14.3401 17.0587 14.1035 17.14 13.8431 17.14C13.4881 17.14 13.216 16.997 13.0266 16.711C12.1036 15.5473 11.4173 14.4428 10.9676 13.3974L10.8079 13.0128L8.44715 12.998C8.29332 12.998 8.20753 13.0054 8.18978 13.0202C8.17203 13.035 8.16315 13.0769 8.16315 13.146C8.16315 13.2347 8.17498 13.3284 8.19865 13.427L8.5714 14.2554C9.5654 16.3955 10.6452 18.0819 11.8108 19.3146C12.9763 20.5473 14.1212 21.1637 15.2454 21.1637H17.0204C17.0914 21.1637 17.1446 21.1465 17.1801 21.1119C17.2156 21.0774 17.2452 21.0109 17.2689 20.9122L17.3044 20.7643L17.6416 19.4625C17.7363 19.285 17.8191 19.1667 17.8901 19.1075C18.0203 18.999 18.1741 18.9448 18.3516 18.9448C18.6356 18.9448 18.9255 19.0878 19.2214 19.3738L20.7301 20.9714C20.8248 21.0996 20.9254 21.1637 21.0319 21.1637H23.9606C24.3156 21.1637 24.4931 21.0897 24.4931 20.9418C24.4931 20.8925 24.4754 20.8432 24.4399 20.7939L21.8661 18.1164C21.665 17.9093 21.5644 17.6874 21.5644 17.4507C21.5644 17.214 21.659 16.9872 21.8484 16.7702C22.0022 16.573 22.301 16.2451 22.7447 15.7865C23.1885 15.3279 23.576 14.8989 23.9074 14.4995C24.2387 14.1001 24.4576 13.7377 24.5641 13.4122L24.6174 13.2199C24.6055 13.2002 24.5996 13.1681 24.5996 13.1238C24.5996 13.0794 24.5937 13.0424 24.5819 13.0128H21.7951C21.6176 13.072 21.4756 13.1608 21.3691 13.2791L21.2626 13.5602C20.9668 14.2406 20.1917 15.2909 18.9374 16.711C18.6889 16.9083 18.399 17.0069 18.0676 17.0069Z" fill="#0F805D"></path></g><defs><clipPath id="vkontakte_0"><rect width="19.2" height="15.0857" fill="white" transform="translate(6.3999 8.7998)"></rect></clipPath></defs></svg><svg viewBox="0 0 32 32" fill="none" id="youtube"><circle cx="16" cy="16" r="15.5" stroke="#0F805D"></circle><path d="M18.5649 15.7525L14.9649 13.3525C14.9198 13.3224 14.8674 13.3052 14.8132 13.3025C14.7591 13.2999 14.7052 13.312 14.6574 13.3375C14.6095 13.3624 14.5694 13.4002 14.5416 13.4465C14.5138 13.4928 14.4993 13.546 14.4999 13.6V18.4C14.4993 18.454 14.5138 18.5072 14.5416 18.5535C14.5694 18.5998 14.6095 18.6376 14.6574 18.6625C14.7016 18.6853 14.7502 18.6981 14.7999 18.7C14.8592 18.7011 14.9172 18.6826 14.9649 18.6475L18.5649 16.2475C18.6067 16.2211 18.6412 16.1846 18.6651 16.1413C18.689 16.0981 18.7015 16.0494 18.7015 16C18.7015 15.9506 18.689 15.9019 18.6651 15.8586C18.6412 15.8154 18.6067 15.7788 18.5649 15.7525ZM15.0999 17.8375V14.1625L17.8599 16L15.0999 17.8375ZM23.6874 11.71C23.6254 11.4813 23.5112 11.2702 23.3537 11.0932C23.1963 10.9162 22.9998 10.7781 22.7799 10.69C20.2449 9.71499 16.1724 9.72999 15.9999 9.72999C15.8274 9.72999 11.7549 9.71499 9.2199 10.69C8.99999 10.7781 8.80355 10.9162 8.64607 11.0932C8.48859 11.2702 8.37437 11.4813 8.3124 11.71C8.1249 12.4375 7.8999 13.7725 7.8999 16C7.8999 18.2275 8.1249 19.5625 8.3124 20.29C8.37437 20.5187 8.48859 20.7298 8.64607 20.9068C8.80355 21.0838 8.99999 21.2218 9.2199 21.31C11.7549 22.285 15.8274 22.27 15.9999 22.27H16.0524C16.5699 22.27 20.3724 22.24 22.7799 21.31C22.9998 21.2218 23.1963 21.0838 23.3537 20.9068C23.5112 20.7298 23.6254 20.5187 23.6874 20.29C23.8749 19.5625 24.0999 18.2275 24.0999 16C24.0999 13.7725 23.8749 12.4375 23.6874 11.71ZM23.1024 20.14C23.0664 20.2765 22.9987 20.4026 22.9049 20.5082C22.8111 20.6137 22.6938 20.6957 22.5624 20.7475C20.1324 21.685 16.0449 21.67 15.9999 21.67C15.9549 21.67 11.8674 21.685 9.4374 20.7475C9.30605 20.6957 9.18872 20.6137 9.09492 20.5082C9.00111 20.4026 8.93345 20.2765 8.8974 20.14C8.7174 19.4425 8.4999 18.16 8.4999 16C8.4999 13.84 8.7174 12.5575 8.8974 11.86C8.93345 11.7235 9.00111 11.5973 9.09492 11.4918C9.18872 11.3863 9.30605 11.3043 9.4374 11.2525C11.8674 10.315 15.9549 10.33 15.9999 10.33C16.0449 10.33 20.1324 10.315 22.5624 11.2525C22.6938 11.3043 22.8111 11.3863 22.9049 11.4918C22.9987 11.5973 23.0664 11.7235 23.1024 11.86C23.2824 12.5575 23.4999 13.84 23.4999 16C23.4999 18.16 23.2824 19.4425 23.1024 20.14Z" fill="#0F805D"></path></svg></svg>