<svg width="36" height="44" viewBox="0 0 36 44" fill="none" xmlns="http://www.w3.org/2000/svg">
<path d="M6.40836 13.4441C6.40836 13.4441 4.54503 14.5628 4.12975 16.4023C3.71448 18.2418 4.12975 20.2561 4.12975 20.2561C4.12975 20.2561 1.20764 21.4615 1.20764 25.2524C1.20764 29.0434 3.67259 30.1151 3.67259 30.1151C3.67259 30.1151 3.70148 34.5893 6.45964 37.0023C9.21781 39.4152 12.1118 39.4268 12.1118 39.4268C12.1118 39.4268 13.6169 42.6103 18.0448 42.6103C22.4728 42.6103 23.9786 39.4268 23.9786 39.4268C23.9786 39.4268 26.9758 38.9891 29.6307 37.0023C32.2856 35.0162 32.2126 30.1151 32.2126 30.1151C32.2126 30.1151 34.8827 29.0441 34.8827 25.2524C34.8827 21.4608 31.9599 20.2568 31.9599 20.2568C31.9599 20.2568 32.3766 18.2418 31.9599 16.4023C31.5431 14.5628 29.6813 13.4441 29.6813 13.4441" fill="#B22EC8"/>
<path d="M32.0457 19.1423C32.0457 11.4008 25.7696 9.22046 18.0289 9.22046C10.2881 9.22046 4.01196 11.4016 4.01196 19.1423C4.01196 26.8831 10.2881 33.1592 18.0289 33.1592C25.7696 33.1592 32.0457 26.8831 32.0457 19.1423Z" fill="#B22EC8"/>
<path d="M18.4745 42.6002C18.4745 42.6002 22.2647 39.9497 22.017 33.8534C23.647 32.1576 24.1526 29.879 22.672 27.11C25.1731 23.5451 24.9131 19.6885 21.9209 16.7649C23.1538 14.9853 22.5088 13.4441 21.1149 12.2864C21.1149 12.2864 25.1269 14.2537 28.1999 11.4407C28.1999 11.4407 34.6588 16.0846 31.9598 20.2568C31.9598 20.2568 39.091 25.0762 32.2126 30.1152C32.2126 30.1152 33.2172 37.796 24.1526 39.3957C24.1526 39.3957 21.7664 42.0968 18.4745 42.6002Z" fill="#6A107A"/>
<path d="M32.2856 3.13375C29.2017 17.5255 19.737 12.6187 18.4507 10.088C17.1652 7.55664 18.4074 -2.52053 32.2856 3.13302V3.13375Z" stroke="black" stroke-width="2" stroke-miterlimit="10" stroke-linecap="round" stroke-linejoin="round"/>
<path d="M24.9132 6.04575C22.6526 6.91386 19.7572 8.30991 18.4746 10.1299M3.80408 3.13375C6.88797 17.5255 16.3527 12.6187 17.639 10.088C18.9245 7.55664 17.6823 -2.52053 3.80408 3.13302V3.13375Z" stroke="black" stroke-width="2" stroke-miterlimit="10" stroke-linecap="round" stroke-linejoin="round"/>
<path d="M11.1765 6.04565C13.4378 6.91377 16.3324 8.30982 17.6151 10.1298M6.40837 13.4441C6.40837 13.4441 4.54503 14.5628 4.12975 16.4023C3.71448 18.2418 4.12975 20.2561 4.12975 20.2561C4.12975 20.2561 1.20764 21.4615 1.20764 25.2524C1.20764 29.0434 3.67259 30.1152 3.67259 30.1152C3.67259 30.1152 3.70148 34.5893 6.45964 37.0023C9.21781 39.4152 12.1118 39.4268 12.1118 39.4268C12.1118 39.4268 13.6169 42.6103 18.0448 42.6103C22.4728 42.6103 23.9786 39.4268 23.9786 39.4268C23.9786 39.4268 26.9758 38.9891 29.6307 37.0023C32.2856 35.0162 32.2126 30.1152 32.2126 30.1152C32.2126 30.1152 34.8827 29.0441 34.8827 25.2524C34.8827 21.4608 31.9599 20.2568 31.9599 20.2568C31.9599 20.2568 32.3766 18.2418 31.9599 16.4023C31.5431 14.5628 29.6813 13.4441 29.6813 13.4441" stroke="black" stroke-width="2" stroke-miterlimit="10" stroke-linecap="round" stroke-linejoin="round"/>
<path d="M22.5088 16.2876C22.5088 16.2876 20.6195 18.286 18.2882 18.286M13.9064 16.2876C13.9064 16.2876 15.7958 18.286 18.1271 18.286M28.1559 23.5452C28.1559 25.6339 26.3633 27.3268 24.1526 27.3268M19.9955 23.5452C19.9955 25.6339 21.788 27.3268 23.9988 27.3268M16.471 23.5452C16.471 25.6339 14.6785 27.3268 12.467 27.3268M8.30994 23.5452C8.30994 25.6339 10.1025 27.3268 12.3139 27.3268M22.2647 33.9004C21.5107 34.9036 19.9825 35.5897 18.2195 35.5897M13.9129 33.7777C14.6315 34.8465 16.2118 35.5897 18.0455 35.5897M13.8761 34.0362C13.8761 34.9318 13.3207 35.7399 12.4331 36.3069M22.308 34.0362C22.308 35.0134 22.9674 35.8851 23.9988 36.4542" stroke="black" stroke-width="2" stroke-miterlimit="10" stroke-linecap="round" stroke-linejoin="round"/>
<path d="M8.90802 25.8187C8.90802 27.5274 7.70841 28.9712 6.06102 29.4399M10.0643 16.2622C10.0643 18.4975 8.27175 20.3103 6.0603 20.3103M25.4917 16.2622C25.4917 18.4975 27.2842 20.3103 29.4957 20.3103M27.5702 25.8187C27.5702 27.4509 28.6651 28.8412 30.1991 29.372" stroke="black" stroke-width="2" stroke-miterlimit="10" stroke-linecap="round" stroke-linejoin="round"/>
</svg>
